<svg id="products-icon2" width="33" height="35" viewBox="0 0 33 35" fill="none" xmlns="http://www.w3.org/2000/svg">
<g filter="url(#filter0_d_2_152)">
<path fill-rule="evenodd" clip-rule="evenodd" d="M11.1765 5.66974C8.1904 7.14722 5.76356 8.37182 5.78353 8.39101C5.80351 8.4102 6.77054 8.89353 7.93252 9.46512L10.0452 10.5043L15.471 7.72439C18.4551 6.19549 20.8962 4.93236 20.8956 4.91753C20.895 4.90275 20.0351 4.46978 18.9846 3.95543C17.4435 3.20083 17.0295 3.0167 16.8403 3.00183C16.6113 2.98385 16.4774 3.04697 11.1765 5.66974ZM17.5138 8.72774C13.056 11.0112 12.1045 11.5149 12.1677 11.5584C12.21 11.5875 13.2746 12.1189 14.5335 12.7393L16.8226 13.8672L20.0907 12.2472C21.8881 11.3562 24.3823 10.1205 25.6332 9.50125L27.9076 8.37529L25.4516 7.16082C24.1008 6.4929 22.9824 5.94721 22.9661 5.94819C22.95 5.94918 20.4964 7.19996 17.5138 8.72774ZM4.81261 15.4085C4.81359 20.5937 4.81763 20.8537 4.90021 21.0328C4.94781 21.136 5.03705 21.266 5.09848 21.3217C5.15992 21.3773 7.60538 22.6729 10.5328 24.2008C13.4603 25.7286 15.8713 26.9883 15.8906 27C15.91 27.0116 15.9258 24.4159 15.9258 21.2315V15.4419L13.5533 14.2722C12.2485 13.6288 11.1617 13.0954 11.1382 13.0868C11.1132 13.0776 11.0956 13.7342 11.0956 14.6792C11.0956 16.2219 11.0915 16.2955 10.9961 16.4928C10.7565 16.988 10.0664 17.1321 9.65692 16.7724C9.31294 16.4702 9.31589 16.4922 9.31336 14.2052L9.31111 12.164L7.14341 11.099C5.95118 10.5133 4.93876 10.0201 4.89364 10.003C4.8158 9.9735 4.81162 10.25 4.81261 15.4085ZM23.265 12.7026L17.7782 15.4162L17.7495 17.5206C17.7337 18.678 17.7179 21.2773 17.7143 23.2969C17.7092 26.2083 17.72 26.968 17.7665 26.9651C17.7987 26.9631 20.2941 25.6694 23.3119 24.0902L28.7986 21.2189L28.8105 15.6004C28.8171 12.5103 28.8066 9.98354 28.7871 9.98547C28.7676 9.98739 26.2827 11.2101 23.265 12.7026Z" fill="#B1404B"/>
</g>
<defs>
<filter id="filter0_d_2_152" x="-2.1875" y="0" width="38" height="38" filterUnits="userSpaceOnUse" color-interpolation-filters="sRGB">
<feFlood flood-opacity="0" result="BackgroundImageFix"/>
<feColorMatrix in="SourceAlpha" type="matrix" values="0 0 0 0 0 0 0 0 0 0 0 0 0 0 0 0 0 0 127 0" result="hardAlpha"/>
<feOffset dy="4"/>
<feGaussianBlur stdDeviation="2"/>
<feComposite in2="hardAlpha" operator="out"/>
<feColorMatrix type="matrix" values="0 0 0 0 0 0 0 0 0 0 0 0 0 0 0 0 0 0 0.25 0"/>
<feBlend mode="normal" in2="BackgroundImageFix" result="effect1_dropShadow_2_152"/>
<feBlend mode="normal" in="SourceGraphic" in2="effect1_dropShadow_2_152" result="shape"/>
</filter>
</defs>
</svg>
